<?xml version="1.0" encoding="UTF-8"?>
<svg id="Capa_1" xmlns="http://www.w3.org/2000/svg" viewBox="0 0 281.43 81.19">
  <defs>
    <style>
      .cls-1 {
        fill: #5f5fff;
      }
    </style>
  </defs>
  <g>
    <path d="M141.19,54.14c0,2.3-.46,4.31-1.38,6.05-.92,1.74-2.18,3.19-3.79,4.36-1.61,1.17-3.47,2.07-5.59,2.68-2.12.61-4.38.92-6.78.92h-26.26V13.8h29.09c1.89,0,3.6.41,5.13,1.22,1.53.82,2.83,1.88,3.9,3.18,1.07,1.3,1.9,2.78,2.49,4.44s.88,3.33.88,5.01c0,2.65-.66,5.14-1.99,7.46-1.33,2.32-3.27,4.05-5.82,5.17,3.11.92,5.58,2.56,7.39,4.94s2.72,5.35,2.72,8.92ZM107.97,22.84v13.7h14.09c1.79,0,3.3-.61,4.55-1.84,1.25-1.22,1.88-2.91,1.88-5.05s-.57-3.75-1.72-4.98c-1.15-1.22-2.56-1.84-4.25-1.84h-14.55ZM130.55,52.15c0-.97-.17-1.9-.5-2.79-.33-.89-.78-1.67-1.34-2.33-.56-.66-1.23-1.19-1.99-1.57-.77-.38-1.61-.57-2.53-.57h-16.23v14.32h15.69c.97,0,1.88-.18,2.72-.54.84-.36,1.57-.85,2.18-1.49.61-.64,1.1-1.39,1.45-2.26.36-.87.54-1.79.54-2.76Z"/>
    <rect class="cls-1" x="154.82" y="13.34" width="22.97" height="6.84"/>
    <path d="M185.74,40.21c-.97-2.5-2.36-4.71-4.17-6.62-1.81-1.91-4.01-3.43-6.58-4.56-2.58-1.12-5.5-1.68-8.77-1.68s-6.2.56-8.8,1.68c-2.6,1.12-4.81,2.64-6.62,4.56s-3.2,4.12-4.17,6.62c-.97,2.5-1.45,5.16-1.45,7.96s.48,5.39,1.45,7.88c.97,2.5,2.36,4.71,4.17,6.62s4.02,3.43,6.62,4.55c2.6,1.12,5.54,1.68,8.8,1.68s6.2-.56,8.8-1.68c2.6-1.12,4.8-2.64,6.58-4.55s3.16-4.12,4.13-6.62c.97-2.5,1.45-5.13,1.45-7.88s-.49-5.46-1.45-7.96ZM175.91,53c-.54,1.48-1.28,2.76-2.22,3.83-.94,1.07-2.06,1.9-3.33,2.49-1.28.59-2.65.88-4.13.88s-2.86-.29-4.13-.88c-1.28-.59-2.39-1.42-3.33-2.49-.94-1.07-1.68-2.34-2.22-3.79-.54-1.45-.8-3.07-.8-4.86s.27-3.34.8-4.82c.54-1.48,1.28-2.76,2.22-3.83.94-1.07,2.05-1.91,3.33-2.53,1.27-.61,2.65-.92,4.13-.92s2.86.29,4.13.88c1.27.59,2.39,1.42,3.33,2.49.94,1.07,1.68,2.35,2.22,3.83.54,1.48.8,3.09.8,4.82s-.27,3.42-.8,4.9Z"/>
    <path d="M209.93,68.92c-2.76,0-5.31-.54-7.66-1.61-2.35-1.07-4.36-2.55-6.05-4.44s-3-4.1-3.94-6.62c-.94-2.53-1.42-5.24-1.42-8.15s.45-5.61,1.34-8.11c.89-2.5,2.13-4.69,3.71-6.58s3.47-3.37,5.67-4.44c2.19-1.07,4.59-1.61,7.2-1.61,2.96,0,5.63.72,8,2.14,2.37,1.43,4.22,3.29,5.55,5.59V12.27h10.26v44.09c0,1.07.18,1.84.54,2.3.36.46.97.72,1.84.77v8.73c-1.79.36-3.24.54-4.36.54-1.84,0-3.34-.46-4.52-1.38-1.17-.92-1.84-2.12-1.99-3.6l-.23-2.53c-1.48,2.55-3.48,4.48-6.01,5.78-2.53,1.3-5.17,1.95-7.92,1.95ZM212.61,60.19c.97,0,1.96-.17,2.99-.5,1.02-.33,1.96-.8,2.83-1.42.87-.61,1.65-1.33,2.34-2.14.69-.82,1.21-1.71,1.57-2.68v-9.57c-.41-1.12-.98-2.16-1.72-3.1-.74-.94-1.58-1.76-2.53-2.45-.94-.69-1.94-1.24-2.98-1.65-1.05-.41-2.08-.61-3.1-.61-1.53,0-2.95.33-4.25.99-1.3.66-2.41,1.57-3.33,2.72-.92,1.15-1.63,2.46-2.14,3.94-.51,1.48-.77,3.01-.77,4.59,0,1.68.28,3.24.84,4.67s1.33,2.68,2.3,3.75c.97,1.07,2.13,1.91,3.48,2.53,1.35.61,2.84.92,4.48.92Z"/>
    <path d="M260.46,68.92c-3.27,0-6.2-.56-8.8-1.68-2.6-1.12-4.81-2.64-6.62-4.55s-3.2-4.12-4.17-6.62c-.97-2.5-1.45-5.13-1.45-7.88s.48-5.46,1.45-7.96c.97-2.5,2.36-4.71,4.17-6.62s4.02-3.43,6.62-4.56c2.6-1.12,5.54-1.68,8.8-1.68s6.19.56,8.77,1.68c2.58,1.12,4.77,2.64,6.58,4.56,1.81,1.91,3.2,4.12,4.17,6.62.97,2.5,1.45,5.16,1.45,7.96s-.49,5.39-1.45,7.88c-.97,2.5-2.35,4.71-4.13,6.62s-3.98,3.43-6.58,4.55c-2.6,1.12-5.54,1.68-8.8,1.68ZM249.97,48.17c0,1.79.27,3.41.8,4.86.54,1.45,1.28,2.72,2.22,3.79.94,1.07,2.05,1.9,3.33,2.49,1.27.59,2.65.88,4.13.88s2.86-.29,4.13-.88c1.27-.59,2.39-1.42,3.33-2.49.94-1.07,1.68-2.35,2.22-3.83.54-1.48.8-3.11.8-4.9s-.27-3.34-.8-4.82c-.54-1.48-1.28-2.76-2.22-3.83-.94-1.07-2.06-1.9-3.33-2.49-1.28-.59-2.65-.88-4.13-.88s-2.86.31-4.13.92c-1.28.61-2.39,1.45-3.33,2.53-.94,1.07-1.68,2.35-2.22,3.83-.54,1.48-.8,3.09-.8,4.82Z"/>
  </g>
  <g>
    <rect x="9.61" y="52.75" width="28.93" height="8.35" transform="translate(-33.2 33.69) rotate(-45)"/>
    <polygon points="49.84 37.06 43.94 31.15 64.4 10.7 67.24 13.54 70.3 16.6 49.84 37.06"/>
    <rect x="52.94" y="42.46" width="8.35" height="28.93" transform="translate(-23.52 57.07) rotate(-45)"/>
    <polygon class="cls-1" points="40.59 0 25.79 14.8 31.7 20.71 40.59 11.81 69.38 40.59 40.59 69.38 11.81 40.59 20.74 31.67 14.83 25.76 0 40.59 40.59 81.19 81.19 40.59 40.59 0"/>
    <rect x="19.9" y="9.41" width="8.35" height="28.93" transform="translate(-9.83 24.01) rotate(-45)"/>
  </g>
</svg>