<?xml version="1.0" encoding="UTF-8"?>
<svg xmlns="http://www.w3.org/2000/svg" viewBox="0 0 564.65 374.48">
  <defs>
    <style>
      .cls-1, .cls-2, .cls-3 {
        fill: #b5846b;
      }

      .cls-4, .cls-5, .cls-6, .cls-7, .cls-8, .cls-9, .cls-2, .cls-10, .cls-3, .cls-11, .cls-12, .cls-13, .cls-14, .cls-15 {
        stroke-linecap: round;
        stroke-linejoin: round;
      }

      .cls-4, .cls-5, .cls-6, .cls-7, .cls-8, .cls-9, .cls-2, .cls-3, .cls-11, .cls-12, .cls-13, .cls-15 {
        stroke: #263238;
      }

      .cls-4, .cls-6, .cls-7, .cls-3, .cls-11, .cls-13 {
        stroke-width: 1.68px;
      }

      .cls-4, .cls-16, .cls-9 {
        fill: #fcd8c3;
      }

      .cls-5 {
        fill: #263238;
      }

      .cls-5, .cls-8, .cls-9, .cls-2, .cls-10, .cls-12, .cls-14, .cls-15 {
        stroke-width: 2.1px;
      }

      .cls-6, .cls-17 {
        fill: #3b57c9;
      }

      .cls-7, .cls-8, .cls-10, .cls-14 {
        fill: none;
      }

      .cls-18, .cls-11, .cls-12 {
        fill: #fff;
      }

      .cls-10, .cls-14 {
        stroke: #9abae3;
      }

      .cls-13 {
        fill: #8f69e9;
      }

      .cls-14 {
        stroke-dasharray: 4.17 4.17;
      }

      .cls-15 {
        fill: #ec644e;
      }
    </style>
  </defs>
  <g id="World_icon">
    <g>
      <circle class="cls-14" cx="273.37" cy="164.75" r="74.38"/>
      <g>
        <g>
          <path class="cls-10" d="M311.69,160.15c4.75,39.61-32.2,60.91-32.2,60.91,0,0-39.26-6.94-48.47-51.92-7.39-36.08,34.97-60.56,34.97-60.56,0,0,40.08,4.82,45.69,51.57Z"/>
          <g>
            <path class="cls-10" d="M328.99,158.08c1.52,12.69-1.28,24.9-7.24,35.16-4.01,6.92-9.46,12.94-16,17.64h0c-7.5,5.39-16.42,9.01-26.23,10.18-9.79,1.17-19.29-.22-27.84-3.65-7.54-3.03-14.32-7.65-19.9-13.49-8.16-8.55-13.73-19.71-15.25-32.35-1.63-13.58,1.69-26.62,8.54-37.31,4.48-6.99,10.48-12.97,17.59-17.43,6.86-4.32,14.77-7.22,23.36-8.25,8.59-1.03,16.95-.08,24.64,2.49,7.95,2.64,15.18,7.03,21.19,12.75,9.19,8.76,15.52,20.66,17.15,34.26Z"/>
            <path class="cls-10" d="M292.65,162.44c3.73,31.06-13.16,58.63-13.16,58.63,0,0-22.93-22.79-26.65-53.85-3.73-31.06,13.16-58.63,13.16-58.63,0,0,22.93,22.79,26.65,53.85Z"/>
            <path class="cls-10" d="M292.65,162.44c3.73,31.06-13.16,58.63-13.16,58.63,0,0-22.93-22.79-26.65-53.85-3.73-31.06,13.16-58.63,13.16-58.63,0,0,22.93,22.79,26.65,53.85Z"/>
            <g>
              <path class="cls-10" d="M290.65,111.07c-6.57,3.69-14.73,6.52-24.86,7.74-8.59,1.03-16.32.1-23.15-1.98,6.86-4.32,14.77-7.22,23.36-8.25,8.59-1.03,16.95-.08,24.64,2.49Z"/>
              <path class="cls-10" d="M311.83,123.82c-7.72,5.99-21.03,12.47-43.62,15.18-19.1,2.29-33.43-.85-43.16-4.73,4.48-6.99,10.48-12.97,17.59-17.43,6.86-4.32,14.77-7.22,23.36-8.25,8.59-1.03,16.95-.08,24.64,2.49,7.95,2.64,15.18,7.03,21.19,12.75Z"/>
            </g>
            <g>
              <path class="cls-10" d="M305.73,210.88c-7.5,5.38-16.42,9.01-26.23,10.18-9.79,1.17-19.29-.22-27.84-3.65,6.7-4.54,14.89-8,24.84-9.2,11.68-1.4,21.33-.09,29.23,2.67Z"/>
              <path class="cls-10" d="M321.74,193.24c-4.01,6.92-9.46,12.94-16,17.64h0c-7.5,5.39-16.42,9.01-26.23,10.18-9.79,1.17-19.29-.22-27.84-3.65-7.54-3.03-14.32-7.65-19.9-13.49,8.45-6.36,22.05-13.47,42.31-15.9,24.07-2.89,38.92.88,47.67,5.22Z"/>
            </g>
            <line class="cls-10" x1="266" y1="108.58" x2="279.5" y2="221.07"/>
          </g>
        </g>
        <line class="cls-10" x1="216.65" y1="172.18" x2="329.45" y2="158.65"/>
      </g>
    </g>
  </g>
  <g id="Character_2">
    <path class="cls-5" d="M427.95,175.39l-3.61,2.11s-4.67,1.41-4.93-1.08c-.04-.43.05-.99.33-1.7.22-.58.57-1.25,1.06-2.04h0c1.09-1.74,1.82-3.48,2.31-4.97.81-2.51.95-4.36.95-4.36l3.89,12.04Z"/>
    <path class="cls-13" d="M506.71,177.8c4.27,4.16,12.35,10.16,15.21,17.18.14.34.25.67.36,1l22.95-3.43-35.14-23.59-5.55,6c.52.9,1.2,1.88,2.18,2.83Z"/>
    <path class="cls-13" d="M494.74,254.28c-3.31,2.91-6.55,3.76-9.48,2.95l-.79,19.2,29.78-30.08-8.52-11.55c-2.48,5.48-5.48,14.63-11,19.48Z"/>
    <path class="cls-8" d="M515.73,208.95c-1.93.65-6.34,1.59-11.82,2.65,3.69,8.96,1.53,11.24,5.2,13.96,4.19,3.1-.61,3.31-3.14,8.71-2.52,5.4-5.53,15.01-11.23,20.01-5.69,5.01-11.16,3.97-15.22-1.26-2.96-3.8-11.89-20.07-18.93-32.11-4.65,1.49-6.25,1.81-14.88.07-8.8-1.77-14.28-41.11-26.14-67.94-.2-.43-.39-.86-.58-1.28,3.85-2.92,9.5-6.55,16.88-9.5.02-.01.04-.02.06-.02,3.85-1.54,8.17-2.88,12.95-3.83h.05s.1-.03.15-.04l.18-.04.44-.1,1.31-.27c.63-.13,1.25-.28,1.88-.44.5-.11,1.01-.24,1.52-.38.35-.08.71-.18,1.06-.28.52-.13,1.03-.28,1.55-.42.09-.03.18-.06.28-.08.02-.01.03-.01.06-.02.03,0,.07-.02.11-.03h.03c.47-.15.95-.29,1.43-.43.03-.01.07-.02.11-.03,0,0,.02-.01.03-.01.05-.01.17-.05.35-.08.09-.02.2-.04.31-.06.12-.02.26-.05.4-.07.22-.04.47-.09.74-.13.27-.05-.32-7.61.01-7.66.41-.07.86-.15,1.34-.24h.04c.36-.07.73-.13,1.12-.2,0,0,.02-.01.04,0,.26-.05.51-.1.77-.13h.04c.17-.03.34-.06.5-.09.12-.02.22-.04.34-.06.26-.05.53-.09.8-.14.02,0,.05-.01.08,0,.26-.05.52-.1.79-.14.02,0,.05-.01.08,0,.27-.05.55-.1.82-.14.02-.01.03-.01.04,0,.87-.15,1.73-.3,2.57-.44.02-.01.05-.01.08,0,.26-.05.51-.1.76-.13h.08c.53-.1,1.04-.19,1.53-.27.67-.11,1.29-.21,1.86-.31.31-.05.6-.11.88-.15h.02c.18-.03.35-.06.5-.09.09-.02.18-.03.27-.04.3-.05.55-.09.75-.12.3-.05.46-.08.46-.08,0,.04.19.19.5.4.03.01.05.04.07.05.96.65,2.92,1.87,4.68,2.95,1.67,1.02,3.15,1.93,3.36,2.07l.03.02c1.13,1.82,5.75,12.09-.65,37.81-.05.23-.11.47-.17.7-.02.1-.05.18-.07.28-.39,1.46-.8,3.25-1.24,5.59-.05.23-.09.47-.13.71,8.05-.94,12.37-1.42,15.65-3.65,4.31-2.93,2.94,1.67,7.2,5.83,4.27,4.15,12.35,10.16,15.21,17.18,2.86,7.02.08,11.85-6.19,13.96Z"/>
    <path class="cls-8" d="M446.65,152.61c-.93,17.12-2.27,32.69-1.51,38.22,1.6,11.65,2.53,10.23,8.76,19.23,6.23,9,21.55,37.73,25.61,42.95"/>
    <path class="cls-8" d="M503.91,211.6c-2-16.63-20.91-24.15-20.91-24.15l.87-11.82"/>
    <path class="cls-5" d="M488.53,146.7s11.39-4.9,24.72-16.63c2.53-2.22,4.12-1.83,4.73-2.26.2-.14-5.71,18.51-16.08,25.19-7.38,4.75-14.54,6.06-14.54,6.06l1.17-12.36Z"/>
    <path class="cls-13" d="M518.25,127.71c-.11.18-.17.28-.21.32.03-.05.08-.15.14-.24h0s.01-.04.02-.05c-.02.02-.05.04-.09.06h0s-.02.02-.04.05c-.43.63-3.18,7.58-8.52,12.75-.03.04-.07.07-.11.1-3.28,3.15-7.53,5.6-12.8,5.53-11.45-.15-15.01,2.19-31.46-12.8.23,2.74-4.75,7.42-19.77,13.46-14.06,5.66-20.13,6.5-20.13,6.5-.03.32-.07.65-.1.97-.23,2.48-.47,4.85-.71,7.1-.34,3.02-.63,5.65-1.12,8.04-.65,3.2-1.68,5.97-3.7,8.71-.04-.43.05-.99.33-1.7-2.43,2.2-2.94-17.64-8.56-34.91-.04-.14-.08-.27-.13-.41-.04-.13-.09-.26-.14-.4-.26-.76-.58-1.45-.93-2.08-.02-.03-.03-.07-.05-.1-1.43-2.52-3.36-4.28-4.84-7.22-.16-.32-.32-.64-.49-.95-.15-.3-.31-.6-.47-.89-.01-.02-.02-.03-.02-.04-.33-.62-.67-1.23-1.02-1.82-.22,2.6-1.84,7.02-3.4,10.8-1.56,3.78-3.06,6.9-3.06,6.9,0,0-7.76-11.17-14.37-12.78-3.67-.89-6.66-1.62-8.9-2.34-.49-.15-.94-.31-1.36-.47-.14-.05-.27-.1-.41-.15-.13-.04-.25-.1-.37-.16-.21-.08-.41-.18-.59-.26-.14-.08-.29-.14-.41-.22-.2-.11-.38-.22-.55-.33-.08-.06-.16-.11-.23-.17-.23-.17-.42-.35-.56-.54-.05-.06-.09-.12-.13-.19-.05-.06-.08-.13-.12-.19l7.13-10.6c.69-.97,2.48-13.96,3.27-16.5h0c.15-.47.3-.92.46-1.38.16-.47.32-.93.48-1.39.17-.46.35-.92.53-1.38.18-.45.31-.92.39-1.41.56-1.29,1.21-2.59,1.94-3.83,2.09-3.58,4.83-6.81,8.04-8.62l7.89-4.46s.05-.06.08-.08c2.41-2.79,3.3-6.58,4.78-8.37.02-.03.04-.06.07-.08.09-.1.18-.19.27-.29h0c.06-.06.12-.11.18-.16.05-.04.09-.08.14-.11.02-.01.03-.03.06-.03.06-.05.13-.09.2-.13.21-.11.41-.21.64-.32.22-.1.43-.2.65-.31,6.75-3.06,17.55-4.04,19.97-6.71,5.67-2.77,23.79-13.23,38.14,2.35,0,0,0,0,.02.02.2.22.41.45.61.68.24.27,3,2.4,6.34,4.93.03.02.06.04.08.07,5.32,4.04,11.08,8.98,11.37,9.25-.49-.04-7.93-.71-12.8,4.82-.07.08-.14.15-.21.23-.07.07-.13.15-.18.22-.1.12-.2.24-.28.37-.19.26-.37.53-.54.83-.09.15-.18.3-.27.45-.08.16-.17.32-.25.49-.02.04-.03.1-.04.15,0,.03,0,.06,0,.09,0,.03,0,.04,0,.07.08.26,2.02,3.8,5.73,7.24,4.22,4.56,9.24,9.5,9.35,9.6,1.15,1.02,2.26,2,3.3,2.95,7.3,6.6,12.22,11.48,17.4,14.76.07.05.13.09.2.13,5.77,3.62,11.06,5.35,13.24,6.11,0,0,.02.01.03.01.14.05.27.09.39.13.12.05.23.09.32.12.05.02.1.04.14.06.07.03.12.05.15.08.02,0,.03.02.03.03.01-.03.02-.03,0,.02Z"/>
    <path class="cls-11" d="M440.25,93.17l-2.36,7.97c-3.22-2-7.77-5.04-9.87-7.52-2.27-2.67-10.56-18.63-14.95-28.33l-.25-4.31.54.27c6.87,3.39,13,8.09,18.07,13.84l5.23,5.93-7.61,4.89,11.21,7.27Z"/>
    <path class="cls-18" d="M402.52,81.3l-5.93,2.6c-4.16,1.83-7.57,5.07-9.53,9.18-1.36,2.85-2.61,5.96-3.68,9.01-.8,2.54-2.58,15.53-3.27,16.5l-7.13,10.6c.03.06.04.09.02.09.11.25.63.95.58,1.01-.49-.15-.94-.31-1.36-.47-.14-.05-.27-.1-.41-.15-.13-.04-.25-.1-.37-.16-.21-.08-.41-.18-.59-.26-.14-.08-.29-.14-.41-.22-.2-.11-.38-.22-.55-.33-.08-.06-.16-.11-.23-.17-.22-.18-.41-.36-.56-.54-.05-.06-.09-.12-.13-.19-.05-.06-.08-.13-.12-.19l7.13-10.6c.69-.97,2.48-13.96,3.27-16.5h0c.41-1.76,1.03-3.66,1.86-5.57.56-1.29,1.21-2.59,1.94-3.83,2.09-3.58,4.83-6.81,8.04-8.62l7.89-4.46s.05-.06.08-.08c2.56-3.17,3.33-6.55,4.78-8.37.02-.03.04-.06.07-.08.09-.1.18-.19.27-.29h0c.06-.06.12-.11.18-.16.05-.04.09-.08.14-.11.02-.01.03-.03.06-.03.06-.05.13-.09.2-.13.21-.11.41-.21.64-.32.22-.1.43-.2.65-.31.4,1.33-.89,10.57-3.51,13.14Z"/>
    <path class="cls-7" d="M518.24,127.7v.02s-.03.05-.06.07h0s-.04.02-.07.02h0s-.02.02-.04.05c-.4.66-2.66,7.58-8.52,12.75-.03.04-.07.07-.11.1-3.15,2.76-7.33,5-12.8,5.53-11.4,1.1-17.63,1.49-31.46-12.8.23,2.74-7.46,7.63-19.77,13.46-13.7,6.49-20.13,6.5-20.13,6.5-.03.32-.07.65-.1.97-.93,9.37-2.45,15.75-4.14,20.1h0c-.1.26-.19.5-.29.73-.27.67-.54,1.09-.78,1.32-2.43,2.2-2.94-17.64-8.56-34.91-.04-.14-.08-.27-.13-.41-.04-.13-.09-.26-.14-.4-.24-.64-.56-1.35-.93-2.08-.02-.03-.03-.07-.05-.1-2-3.89-5.45-8.54-5.79-9.05-.01-.02-.02-.03-.02-.04-.33-.62-.67-1.23-1.02-1.82-.22,2.6-1.84,7.02-3.4,10.8-1.56,3.78-3.06,6.9-3.06,6.9,0,0-7.76-11.17-14.37-12.78-3.67-.89-6.66-1.62-8.9-2.34-.49-.15-.94-.31-1.36-.47-.14-.05-.27-.1-.41-.15-.13-.04-.25-.1-.37-.16-.21-.08-.41-.18-.59-.26-.14-.08-.29-.14-.41-.22-.2-.11-.38-.22-.55-.33-.08-.06-.16-.11-.23-.17-.23-.17-.42-.35-.56-.54-.05-.06-.09-.12-.13-.19-.05-.06-.08-.13-.12-.19l7.13-10.6c.69-.97,2.48-13.96,3.27-16.5h0c.15-.47.3-.92.46-1.38.16-.47.32-.93.48-1.39.17-.46.35-.92.53-1.38.69-1.76,1.5-3.52,2.33-5.25,2.09-3.58,4.83-6.81,8.04-8.62l7.89-4.46s.05-.06.08-.08c2.41-2.79,3.3-6.58,4.78-8.37.02-.03.04-.06.07-.08.09-.1.18-.19.27-.29h0c.06-.06.12-.11.18-.16.06-.05.12-.1.19-.14.06-.05.13-.09.2-.13.21-.11.41-.21.64-.32.22-.1.43-.2.65-.31,6.75-3.06,17.55-4.04,19.97-6.71,5.67-2.77,23.79-13.23,38.14,2.35,0,0,0,0,.02.02.31.27,3.39,2.74,6.94,5.61.03.02.06.04.08.07,5.11,4.12,11.2,9,11.48,9.26-.49-.05-8.45-.77-13.11,5.05-.07.07-.13.15-.18.22-.1.12-.2.24-.28.37-.19.26-.37.53-.54.83-.09.15-.18.3-.27.45-.08.16-.17.32-.25.49-.02.04-.04.09-.04.15,0,.03,0,.06,0,.09,0,.03,0,.04,0,.07.17.98,2.75,4.01,5.73,7.24,4.22,4.56,9.24,9.5,9.35,9.6,1.15,1.02,2.26,2,3.3,2.95,7.35,6.59,12.42,11.46,17.4,14.76.07.05.13.09.2.13.31.22.62.41.93.61,5.26,3.25,10.21,4.81,12.31,5.51,0,0,.02.01.03.01.14.05.27.09.39.13.12.05.23.09.32.12.05.02.1.04.14.06.07.03.12.05.15.08.02,0,.03.02.03.03Z"/>
    <path class="cls-11" d="M398.74,74.57c.02-.4-.96,9.26-.03,14.96.89,5.42.95,5.41.95,5.41l5.02,2.49-2.54,10.17,13.15,13.38-10.64-39.26-1.84-8.07-4.07.91Z"/>
    <line class="cls-8" x1="458.17" y1="97.48" x2="444.77" y2="84.11"/>
    <path class="cls-8" d="M441.11,86.9c4.28,4.37,9.24,6.44,11.09,4.63"/>
    <path class="cls-8" d="M396.43,108.29c-3.82,10.4,6.87,19.41,6.87,19.41"/>
    <path class="cls-8" d="M391.59,117.38c3.54,3.61,10.93,11.08,11.7,10.32"/>
    <path class="cls-5" d="M478.94,84.39l-3.58-4.63s1.98-.7,3.99-.95c2.91-.35,3.2-.07,3.2-.07,0,0,.9-.28-1.42,3.36-.77,1.2-2.2,2.29-2.2,2.29Z"/>
    <path class="cls-5" d="M389.5,145.45l3.1-5.25s6.14,4.98,4.23,5.2-7.33.05-7.33.05Z"/>
    <line class="cls-8" x1="465.16" y1="133.43" x2="458.76" y2="126.47"/>
    <path class="cls-8" d="M441.46,103.25s-1.51-.84-3.57-2.11c-3.22-2-7.77-5.04-9.87-7.52-2.27-2.67-9.3-15.93-13.7-25.62"/>
    <path class="cls-7" d="M412.71,113.96c3.34,13.65,19.57,29.6,8.83,59.11"/>
    <path class="cls-5" d="M407.69,81.18c1.44,1.46,3.34.58,4.57-1.93.15-.31.29-.64.42-.99.04-.11.08-.21.11-.33.08-.25.16-.52.23-.78.86-3.3.39-7.02-1.15-8.59-.92-.93-2.03-.92-3.03-.13-.05.04-.1.08-.14.13-.07.06-.14.12-.2.19-.68.67-1.29,1.71-1.73,3.05-1.15,3.48-.74,7.68.92,9.37Z"/>
    <path class="cls-16" d="M413.12,70.97h0c-.91,3.05-2.87,5.55-5.52,6.88-.09.05-.18.1-.27.13-.24.11-.48.21-.72.3-.08.03-.16.06-.24.08-.18.07-.36.13-.55.17-.03.02-.07.02-.09.02-.28.08-.57.14-.85.19-1.66.29-3.31.16-4.87-.34-4.25-1.34-7.83-5.32-8.9-10.48-.35-1.7-.4-3.36-.16-4.93.12-.94.35-1.87.67-2.72.08-.23.17-.45.27-.67.05-.16.12-.32.19-.46,1.48-3.08,4.16-5.34,7.54-5.96.01,0,.02,0,.03,0,.06-.02.12-.02.18-.02,5.64-.89,11.26,3.18,13.19,9.32.16.5.3,1.04.4,1.56.05.22.07.43.12.64.11.73.18,1.46.18,2.17,0,.13,0,.27,0,.4-.02,1.3-.22,2.55-.59,3.71Z"/>
    <path class="cls-18" d="M407.59,77.85c-.09.05-.18.1-.27.13-.24.11-.48.21-.72.3-.08.03-.16.06-.24.09-.18.05-.36.12-.55.16-.03.02-.07.02-.09.02-.28.08-.57.14-.85.19-1.66.29-3.31.16-4.87-.34-4.25-1.34-7.83-5.32-8.9-10.48-.35-1.7-.4-3.36-.16-4.93.12-.94.35-1.87.67-2.72.08-.23.17-.45.27-.67.05-.16.12-.32.19-.46,1.48-3.08,4.16-5.34,7.54-5.96.01,0,.02,0,.03,0,.06-.02.12-.02.18-.02-2.11,1.06-3.81,2.83-4.86,5.06-.07.14-.14.3-.2.46-.09.22-.18.44-.26.67-.39,1.07-.66,2.23-.75,3.44-.12,1.35-.05,2.77.25,4.21.92,4.5,3.78,8.1,7.32,9.84,1.56.76,3.26,1.16,4.99,1.11.43,0,.87-.04,1.3-.11Z"/>
    <path class="cls-7" d="M413.12,70.97h0c-.91,3.05-2.87,5.55-5.52,6.88-.09.05-.18.1-.27.13-.24.11-.48.21-.72.3-.08.03-.16.06-.24.08-.18.07-.36.13-.55.17-.03.02-.07.02-.09.02-.28.08-.57.14-.85.19-1.66.29-3.31.16-4.87-.34-4.25-1.34-7.83-5.32-8.9-10.48-.35-1.7-.4-3.36-.16-4.93.12-.94.35-1.87.67-2.72.08-.23.17-.45.27-.67.05-.16.12-.32.19-.46,1.48-3.08,4.16-5.34,7.54-5.96.01,0,.02,0,.03,0,.06-.02.12-.02.18-.02,5.64-.89,11.26,3.18,13.19,9.32.16.5.3,1.04.4,1.56.05.22.18,1.16.23,1.37.11.73.07.73.07,1.44,0,.13,0,.27,0,.4-.02,1.3-.22,2.55-.59,3.71Z"/>
    <path class="cls-4" d="M328.19,166.24c-.91-.41-1.59-1.25-2.09-2.16-.96-1.75-1.22-3.8-.85-5.76l1.21-6.51s1.43-4.29,4.1-6.73c3.54-3.24,7.44-.41,7.44-.41l27.74-7.89,5.53-7.63c3.4,1.33,5.46,2.09,11.21,3.48,3.77.92,7.57,4.59,10.14,7.58-3.6,6.16-9,15.76-10.27,16.52-2.44,1.44-47.02,12.78-54.15,9.52Z"/>
    <path class="cls-8" d="M315.2,159.9s4.56-.79,9.36-1.85"/>
    <path class="cls-11" d="M523.06,34.95C499.63,13.73,468.86,1.64,436.42.9c-28.14-.64-53.9,3.79-76.56,13.19-18.18,7.54-34.39,18.26-48.22,31.86-15.19,14.95-24.04,29.91-28.5,38.92-.89,1.8.57,3.87,2.57,3.63h0c.84-.1,1.58-.61,1.96-1.38,4.3-8.65,12.89-23.21,27.5-37.58,21.01-20.68,59.09-45.03,121.13-43.61,62.5,1.43,114.96,46.96,122.03,105.9,2.43,20.24-5.1,42.19-18.75,54.6-10.73,9.76-24.61,13.14-40.12,9.77-2.44-.53-4.72-1.16-6.85-1.88-.04-.01-.08-.02-.12-.04-12.54-4.22-20.05-11.46-25.27-19.65-3.93-6.15-6.57-12.85-9.07-19.21-5.53-14.07-10.75-27.35-27.76-29.34-19.68-2.31-29.06,7.91-42.06,22.06-1.95,2.12-3.97,4.31-6.14,6.61-17.88,18.85-55.81,18.5-56.51,18.33-1.35-.34-2.71.49-3.05,1.84-.34,1.35.48,2.71,1.83,3.05.82.21,41.37,1.34,61.38-19.75,2.2-2.32,4.23-4.54,6.19-6.67,12.88-14.01,20.66-22.47,37.78-20.46,14.01,1.65,18.26,12.47,23.66,26.19,2.38,6.07,4.98,12.68,8.8,18.95,5.74,9.44,14.25,18.12,28.97,22.96.12.04.26.09.39.13,2.12.68,4.37,1.29,6.75,1.81,6.47,1.4,12.68,1.74,18.56,1.03,9.73-1.17,18.54-5.2,26.02-12,14.79-13.46,22.97-37.14,20.36-58.92-3.46-28.81-17.76-55.91-40.26-76.28Z"/>
    <path class="cls-4" d="M425.59,123.71c-5.62-2.4-1.75-6.99-1.75-6.99,0,0-5.29-.18-3.63-3.65,1.5-3.12,8.99-1.48,9.61-1.99,0,0,1.91.46,1.66-2.7-.28-3.49-6.7-2.42-6.77-3.04-.26-2.59,6.92-3.59,9.51-3.87,1.15-.13,9.56,2.57,10.71,2.67,2.14.19,16.43-3.14,16.43-3.14l-3.19-3.52,2.19-1.38c2.04-1.29,6.05-5.71,6.78-8.02,3.23-7.59,8.22-8.32,8.22-8.32,0,0,6.25,7.89,11.81,15.97,6.9,10.02,12.95,22.39.58,26.38-9.02,2.91-50.49,6.4-54.14,6.43-9.52.09-6.2-4.06-8.01-4.83Z"/>
    <line class="cls-7" x1="466.96" y1="99.32" x2="461.36" y2="101"/>
    <path class="cls-9" d="M334.82,150.8c-1.52,4.05-4.23,7.29-7.93,5.97-2.83-1.01,2.35-10.24,2.35-10.24"/>
    <path class="cls-9" d="M347.46,156.75s-5.14,5.24-7.52,1.88c-2.37-3.36-3.51-3.34-5.06-2.81l-1.61,1.19s-1.29-2.74-3.46-1.84c-2.17.9-2.05,2.3-2.05,2.3,0,0-3.25-2.33-4.55-.27-1.3,2.07-.62,5.84,2.22,8.09,4.78,3.79,19.97.04,19.97.04"/>
    <path class="cls-8" d="M333.27,157c.46,3.86,2.82,6.74,5.28,6.44"/>
    <path class="cls-8" d="M327.76,157.47c.48,3.96,2.27,7,4.01,6.79"/>
    <path class="cls-8" d="M325.3,156.39c2.14,4.68-.99,7.64-1.11,7.65"/>
    <path class="cls-8" d="M335.47,162.12c2.78-1.17.15-5.87.2-5.88"/>
    <path class="cls-15" d="M293.38,173.31l18.8.05c10-.57,17.65-9.14,17.08-19.14h0c-.57-10-9.14-17.65-19.14-17.08l-18.96-.34,2.22,36.51Z"/>
    <path class="cls-15" d="M285.88,155.3c.44,10.11,3.8,18.18,7.5,18.02,3.7-.16,6.33-8.49,5.89-18.6s-3.8-18.18-7.5-18.02c-3.7.16-6.33,8.49-5.89,18.6Z"/>
    <path class="cls-12" d="M308.44,158.22c1.43,1.31,3.65,1.21,4.96-.22s1.21-3.65-.22-4.96c-1.43-1.31-3.65-1.21-4.96.22-1.31,1.43-1.21,3.65.22,4.96Z"/>
    <path class="cls-5" d="M294.6,148.59c.14,1.14-.68,2.17-1.81,2.31s-2.17-.68-2.31-1.81.68-2.17,1.81-2.31,2.17.68,2.31,1.81Z"/>
    <path class="cls-5" d="M294.94,161.6c.14,1.14-.68,2.17-1.81,2.31s-2.17-.68-2.31-1.81.68-2.17,1.81-2.31,2.17.68,2.31,1.81Z"/>
    <path class="cls-5" d="M390.7,60.04c.34,1.92,1.42,3.54,3.6,4.33,1.83.67,3.86.32,5.75-.18,1.88-.5,3.76-1.17,5.71-1.12,2.75.07,5.25,1.52,7.89,2.28,3.05.87,6.37.78,9.38-.25,1.45-.5,2.89-1.26,3.75-2.54,1.12-1.66,1.03-3.83,1.71-5.72,1-2.81,3.62-4.76,6.35-5.98,2.73-1.22,5.68-1.88,8.41-3.11,2.42-1.09,4.78-2.81,5.57-5.35,1.09-3.51-1.39-7.37-4.72-8.93-3.33-1.56-7.21-1.31-10.83-.64-1.59.29-3.22.66-4.8.31-1.48-.33-2.74-1.26-4.05-2.03-2.89-1.7-6.47-2.69-9.61-1.5-5.3,2.01-6.72,8.8-10.58,12.95-2.59,2.78-6.23,4.31-9.23,6.65-2.67,2.09-4.94,7.04-4.28,10.82Z"/>
  </g>
  <g id="Character_1">
    <path class="cls-5" d="M168.79,217.56s-2.28,2.95-7.52,4.07c-.61-5.11.12-9.85.12-9.85,0,0,2.15-1.02,2.16-1,0,.03,5.24,6.78,5.24,6.78Z"/>
    <path class="cls-5" d="M75.53,216.87l4-7.36s-5.72-.6-8.06-.24c-2.33.36-4.16,2.07-4.75,2.53-.32.25,2.27,2.66,4.97,4.06,2.22,1.15,3.83,1.01,3.83,1.01Z"/>
    <path class="cls-6" d="M109.93,342.44c-6.5-4.88-10.52-14.89-13.66-20.45-.54-.95-1.13-1.73-1.73-2.39l-3.99,1.69c-3.93,1.66-5.79,6.17-4.18,10.11l17.26,42.25,7.89-30.14c-.53-.32-1.06-.66-1.6-1.07Z"/>
    <path class="cls-6" d="M19.51,319.04c-3.19-7.47-1.66-18.15-1.59-24.54.01-1.17-.13-2.21-.34-3.13l-9.86,1.27c-4.82.62-7.94,5.42-6.54,10.08l13.54,45.22,9.22-23.05c-1.75-1.2-3.26-3.13-4.43-5.86Z"/>
    <path class="cls-18" d="M156.85,201.09c-2.48-.69-5.5-1.05-8.82-1.15.63.13,1.24.27,1.82.43,2.16.6,5.81,2.48,5.99,4.72,2.5,29.93,3.72,55.89,3.16,65.31-.74,12.58-8.11,22.35-14.02,32.48-5.91,10.13-19.93,31.2-23.83,37.11-1.73,2.63-5.89,3.51-8.25,4.24,5.28,2.47,9.9.6,13.2-4.4,3.9-5.91,20.54-31.28,26.45-41.4,5.91-10.13,10.3-17.45,11.04-30.04.56-9.42-.34-32.63-2.84-62.56-.19-2.24-1.73-4.14-3.89-4.74Z"/>
    <path class="cls-7" d="M160.74,205.84c2.51,29.92,3.4,53.14,2.85,62.56-.74,12.58-5.13,19.91-11.04,30.03-5.91,10.13-22.55,35.49-26.45,41.41-3.9,5.91-9.67,7.47-16.16,2.6-6.5-4.88-10.52-14.89-13.66-20.45-3.14-5.56-8.29-5.39-4.06-9.06,4.22-3.67,4.51-15.76,12.4-28.78,4.22-6.93,3.41-4.28,10.27-11.55.57-.6,1-1.33,1.25-2.12.02-.07.04-.13.06-.2.32-1.06.33-2.05.1-2.93l1.03-29.39s-.02.05-.04.07c-.12.26-.45,1.09-.96,2.31-4.35,10.56-7.85,20.11-9.98,25.71-.19.33-.38.66-.57.97-3.7,6.29-7.29,11.14-8.94,13.67-6.94,10.52-7.19,8.72-17.37,14.53-10.18,5.8-38.31,26.49-44.65,29.65s-12.1,1.64-15.3-5.84c-3.19-7.47-1.66-18.15-1.59-24.54.06-6.39-4.48-8.82,1.01-9.87.06,0,.13-.03.2-.04.8-.24,1.76-.98,2.87-2.09,6.11-6.11,16.8-23.46,31.11-29.38.08-.03.16-.06.24-.09,1.17-.48,2.38-.88,3.6-1.18h.03c3.43-.92,7.79-13.34,11.64-25.75.12-.41.24-.8.37-1.2.56-1.83,1.12-3.65,1.65-5.43.37-1.2.72-2.39,1.07-3.54.64-2.14,2.15-6.78,4.37-6.94,11.27-.84,23.57,1.6,41.9-4.42,12.65-4.16,30.13-5.52,39.45-2.92,2.16.6,3.14,1.96,3.33,4.2Z"/>
    <path class="cls-8" d="M121.39,228.53c-1.41,3.16-2.77,6.32-4.07,9.41h0s-.02.06-.04.08c-.12.26-.45,1.09-.96,2.31-4.35,10.56-7.85,20.11-9.98,25.71"/>
    <path class="cls-7" d="M90.7,210.17c.44,1.64-9.99,10.84-15.91,12.42"/>
    <path class="cls-7" d="M82.32,218.86s-12.02,35.15-15.51,37.95c-3.49,2.79-12.07,2-20.78,11.21-8.71,9.21-13.49,19.18-17.73,22.48-1.69,1.31-3.52,2.54-5.11,3.55"/>
    <path class="cls-7" d="M119.97,231.75l4.36,45.57s-9.16.45-14.3,13.5c-4.13,10.49-6.42,19.77-8.05,24.49"/>
    <path class="cls-2" d="M222.02,188.6c-.1,0-.22,0-.33,0-6.69.01-27.53,3.32-30.53,2.38-.31-.1-1.02-.57-1.98-1.34-4.15-3.35-11.55-9.24-14.65-18.04.05-.26.1-.5.15-.74.22-.85.54-1.6.94-2.25.1-.16.2-.31.31-.46,1.62-2.21,4.32-3.36,7.46-4.33.72-.22,1.42-.49,2.07-.78.28-.13.56-.26.82-.4.38-.2.75-.39,1.11-.62.18-.1.36-.22.54-.34.73-.45,1.43-.95,2.07-1.49.18-.12.34-.26.51-.4.03-.03.07-.06.1-.09,3.64-3.12,5.85-6.72,7.12-7.46h0s9.13,11.91,9.13,11.91l20.52-4.35c3.01-.55,6.1.33,8.36,2.39"/>
    <path class="cls-8" d="M222.02,188.6c-.1,0-.22,0-.33,0-6.69.01-27.53,3.32-30.53,2.38-.31-.1-1.02-.57-1.98-1.34-4.15-3.35-11.55-9.24-14.65-18.04.05-.26.1-.5.15-.74.22-.85.54-1.6.94-2.25.1-.16.2-.31.31-.46,1.62-2.21,4.32-3.36,7.46-4.33.72-.22,1.42-.49,2.07-.78.28-.13.56-.26.82-.4.38-.2.75-.39,1.11-.62.18-.1.36-.22.54-.34.73-.45,1.43-.95,2.07-1.49.18-.12.34-.26.51-.4.03-.03.07-.06.1-.09,3.64-3.12,5.85-6.72,7.12-7.46h0s9.13,11.91,9.13,11.91l20.52-4.35c3.01-.55,6.1.33,8.36,2.39"/>
    <path class="cls-5" d="M52.07,138.29c.92,1.86,6.25,4.8,6.25,4.8l2.25-6.46-.48-3.05-8.02,4.71Z"/>
    <path class="cls-17" d="M200,153.4c-.07.82-.89,1.89-2.46,2.96-2.59,1.78-6.2,7.12-12.87,8.39-6.68,1.27-10.78,14.47-10.78,14.47,0,0-3.07-5.51-5.9-8.45-2.83-2.95-5.59-3.22-6.75-5.55-3.92,24.75,7.51,51.98,7.51,51.98-.64,3.18-3.04-14.4-46.43-8.98-22.16,2.76-40.89,1.2-44.57.86-9.53-.88-10.58,2.9-11.02,2.72-1.52-.65,2.81-17.02,5.87-26.58,6.25-19.54,3.07-21.08,9.92-38.87-4.05,1.03-12.15-5.9-13.29-6.94-6.98-6.33-16.82-1.29-17.15-1.13.06-.27,1.44-5.84,6.89-12.39,1.34-1.62,4.38-7.79,6.71-12.09.39-.73.77-1.4,1.11-1.99.15-.26.29-.5.43-.73.15-.25.29-.47.43-.67,12.62-18.72,41.16-8.65,45.66-6.13,3.35,1.88,12.89,2.07,20.29,2.86,2.53.27,10.1,5.24,14.44,7.09l15.3,3.26c4.32,1.55,8.86,4.58,11.94,7.99.17.19.32.37.45.52,1.67,2.08,10.98,12.2,11.97,12.85l12.31,14.54Z"/>
    <path class="cls-18" d="M161.23,165.23l-1.14.14c-4.33,14.92,1.44,38.06,4.2,48.25,3.62,2.68,4.18,4.9,4.45,3.59,0,0-8.05-28.81-7.51-51.98Z"/>
    <path class="cls-18" d="M56.7,129.68c.57-.68,1.44-2.19,2.43-4.02-.06.08-.12.17-.18.23-2.18,2.62-3.7,5.08-4.76,7.11.72-1.07,1.54-2.18,2.5-3.33Z"/>
    <path class="cls-18" d="M202.28,152.25c-.07.82-3.17,3.04-4.74,4.12l-12.11-13.72c-.5-.33-3.07-3.02-5.73-5.89-2.66-2.87-5.41-5.91-6.24-6.95-.13-.15-.28-.33-.46-.53-3.07-3.41-7.61-6.44-11.93-7.99l-15.3-3.26c-4.34-1.84-11.91-6.82-14.44-7.09-7.39-.8-16.94-.98-20.29-2.86-4.46-2.51-32.61-12.43-45.37,5.73.39-.73.77-1.4,1.11-1.99.15-.26.29-.5.43-.73.15-.25.29-.47.43-.67,12.62-18.72,41.16-8.65,45.66-6.13,3.35,1.88,12.89,2.07,20.29,2.86,2.53.27,10.1,5.24,14.44,7.09l15.3,3.26c4.32,1.55,8.86,4.58,11.94,7.99.17.19.32.37.45.52,1.67,2.08,10.98,12.2,11.97,12.85l14.6,13.39Z"/>
    <path class="cls-7" d="M202.28,152.25c-.07.82-3.17,3.04-4.74,4.12-2.59,1.78-6.2,7.12-12.87,8.39-6.68,1.27-10.29,13.74-10.29,13.74,0,0-3.56-4.78-6.39-7.72-2.83-2.95-5.76-3.99-6.92-6.33-3.92,24.75,7.68,52.76,7.68,52.76-.64,3.18-3.04-14.4-46.43-8.98-22.16,2.76-40.89,1.2-44.57.86-9.53-.88-10.58,2.9-11.02,2.72-1.52-.65,2.81-17.02,5.87-26.58,6.25-19.54,3.07-21.08,9.92-38.87-4.05,1.03-12.15-5.9-13.29-6.94-6.98-6.33-16.82-1.29-17.15-1.13.06-.27,1.44-5.84,6.89-12.39,1.34-1.62,4.38-7.79,6.71-12.09.39-.73.77-1.4,1.11-1.99.15-.26.29-.5.43-.73.15-.25.29-.47.43-.67,12.62-18.72,41.16-8.65,45.66-6.13,3.35,1.88,12.89,2.07,20.29,2.86,2.53.27,10.1,5.24,14.44,7.09l15.3,3.26c4.32,1.55,8.86,4.58,11.94,7.99.17.19.32.37.45.52,1.67,2.08,10.98,12.2,11.97,12.85l14.6,13.39Z"/>
    <polyline class="cls-11" points="142.98 105.46 145.48 126.28 135.89 116.55 136.3 106.26 142.73 103.36"/>
    <polygon class="cls-11" points="124.12 101.09 118.57 105.72 118.72 121.89 130.17 115.66 124.12 101.09"/>
    <path class="cls-12" d="M135.89,116.55s-3.14,2.15-2.77,7.18c.37,5.02,2.39,14.35,2.32,17.27-.04,1.67-9.5-.46-9.5-.46"/>
    <path class="cls-7" d="M163.99,148.87c-1.82,4.27-2.92,15.58-2.92,15.58"/>
    <path class="cls-1" d="M251.86,154.14s-.06.13-.17.37c-.01,0-.02,0-.03-.01-.01,0-.04-.02-.06-.03-.34-.17.26-.33.26-.33Z"/>
    <path class="cls-18" d="M252.13,149.31c.03-.06.06-.13.08-.19-.02.06-.04.12-.07.19h0Z"/>
    <path class="cls-18" d="M252.45,148.19c.02-.2.01-.39-.02-.58.05.19.05.38.02.58Z"/>
    <path class="cls-18" d="M252.08,146.83c.08.1.14.21.19.32-.05-.11-.11-.22-.19-.32Z"/>
    <path class="cls-18" d="M252.42,147.61c-.02-.14-.07-.27-.12-.4.06.13.1.26.12.4Z"/>
    <path class="cls-18" d="M252.3,147.21s-.03-.04-.04-.06c0,.02.03.04.04.06Z"/>
    <path class="cls-18" d="M252.02,146.78s.04.04.05.06c-.01-.02-.04-.04-.05-.06Z"/>
    <path class="cls-18" d="M251.3,146.17c.31.18.54.39.72.61-.18-.22-.42-.42-.73-.6-.09-.05-.19-.1-.29-.15.1.04.2.09.3.15Z"/>
    <path class="cls-12" d="M165.19,175.55c-13.49-5.41-24.43-15.73-38.27-20.42-12.97-4.39-26.21-6.81-39.62-9.36-.07-.01-.14-.03-.21-.04l-2.25,5.59c12.52,3.07,25.27,4.85,37.67,8.51,7.42,2.19,14.06,5.12,20.56,9.31,6.46,4.15,12.92,8.59,20.24,11.09,24.6,8.39,50.72.49,61-.74,2.36-.28,9.67-2.99,11.68-3.47.15-1.78.3-3.57.46-5.35-10.56,2.91-51.12,12.97-71.26,4.89Z"/>
    <path class="cls-5" d="M135.89,116.55c-.8,1.89-2.9,1.76-4.96-.13-.25-.23-.5-.49-.75-.76-.07-.09-.15-.17-.23-.26-.17-.21-.34-.43-.5-.64-2-2.76-2.92-6.4-2.06-8.41.51-1.2,1.55-1.59,2.77-1.22.06.02.12.04.18.07.08.03.17.06.26.1.88.38,1.82,1.12,2.73,2.2,2.34,2.82,3.49,6.88,2.56,9.06Z"/>
    <path class="cls-1" d="M137.63,113.27c-5.29,1.07-10.46-2.33-12.57-7.85-.25-.67-.46-1.37-.62-2.1-.04-.22-.09-.44-.13-.67-.09-.52-.15-1.05-.19-1.56-.45-6.5,3.38-12.39,9.05-13.54,3.38-.68,6.72.45,9.22,2.79.12.11.24.23.35.36.17.16.33.35.49.53,1.62,1.82,2.79,4.2,3.26,6.93,1.22,7.1-2.74,13.87-8.87,15.11Z"/>
    <path class="cls-18" d="M146.5,98.16c-.48-2.73-1.64-5.11-3.26-6.93-.16-.18-.33-.36-.49-.53-.11-.13-.23-.25-.35-.36-2.5-2.34-5.84-3.47-9.22-2.79-.06.01-.11.03-.17.04,2.36.21,4.58,1.25,6.37,2.93.12.11.24.23.35.36.17.16.33.35.49.53,1.62,1.82,2.79,4.2,3.26,6.93,1.21,7.05-2.68,13.76-8.73,15.07.95.09,1.91.05,2.89-.15,6.13-1.24,10.09-8.01,8.87-15.11Z"/>
    <path class="cls-7" d="M137.63,113.27c-5.29,1.07-10.46-2.33-12.57-7.85-.25-.67-.46-1.37-.62-2.1-.04-.22-.09-.44-.13-.67-.09-.52-.15-1.05-.19-1.56-.45-6.5,3.38-12.39,9.05-13.54,3.38-.68,6.72.45,9.22,2.79.12.11.24.23.35.36.17.16.33.35.49.53,1.62,1.82,2.79,4.2,3.26,6.93,1.22,7.1-2.74,13.87-8.87,15.11Z"/>
    <path class="cls-5" d="M146.32,87.91c.12-.73.16-1.52.1-2.37-.29-4.2-4.06-5.74-6.11-4.11-.35.28-.67.5-.89.82-.52.76-1.43,1.18-2.3.86-.08-.03-.16-.06-.25-.08-1.14-.32-2.4.05-3.19.93-.95,1.05-1.05,2.46-.49,3.58,0,0-.02,0-.03,0-5.67,1.15-9.5,7.04-9.05,13.54.04.52.1,1.07.19,1.6.23.21.39.36.63.57,5.48.4,6.89-1.73,7.57-4.65.51-2.17,3.46-2.78,3.59-2.78,1.87,0,9.18-2.45,9.18-2.45,1.32-.35,3.9-2.31,3.55-3.63-.31-1.14-1.37-1.88-2.51-1.83Z"/>
    <path class="cls-15" d="M275.98,177.3l-17.08,4.8c-9.24,2.01-18.36-3.84-20.38-13.08h0c-2.01-9.24,3.84-18.36,13.08-20.38l16.57-5.05,7.81,33.71Z"/>
    <path class="cls-15" d="M278.23,159.01c2.16,9.31,1.15,17.49-2.26,18.28-3.4.79-7.91-6.12-10.07-15.43-2.16-9.31-1.15-17.49,2.26-18.28,3.4-.79,7.91,6.12,10.07,15.43Z"/>
    <path class="cls-12" d="M268.11,152.48c-.38-1.73.72-3.44,2.46-3.81l11.87-2.56c1.73-.38,3.44.72,3.81,2.45h0c.38,1.73-.72,3.44-2.45,3.81l-11.89,2.56c-1.73.37-3.43-.72-3.8-2.45h0Z"/>
    <path class="cls-12" d="M272.13,169.59c-.38-1.73.72-3.44,2.46-3.81l11.87-2.56c1.73-.38,3.44.72,3.81,2.45h0c.38,1.73-.72,3.44-2.45,3.81l-11.89,2.56c-1.73.37-3.43-.72-3.8-2.45h0Z"/>
    <path class="cls-12" d="M257.37,167.11c-.97,1.55-3.01,2.03-4.57,1.06-1.55-.97-2.03-3.01-1.06-4.57.97-1.55,3.01-2.03,4.57-1.06s2.03,3.01,1.06,4.57Z"/>
    <path class="cls-3" d="M125.8,173.58c5.93-1.49,2.25-6.42,2.25-6.42,0,0,2.12-1.15,2.12-3.7-.25-2.24-3.26-1.29-8.18-4.76-1.21-.85-.75-2.74-.49-3.98.74-3.48,6.05,1.23,6.21.63.68-2.58-6.07-6.5-7.78-7.02-1.59-.48-3.09-.77-4.74-.45-3.06.59-6.25,3.61-9.45,3.44-1.95-.11-3.91-.16-5.87-.22-4.6-.15-9.21-.35-13.82-.32-.31,0-.63,0-.94.02.37-.01,1.74-4.49,1.99-5.08-.04.09-4.55.05-5,.05-1.57.02-3.02-.17-4.51-.67-3.07-1.04-5.56-3.3-8.06-5.35-2.26-1.85-5.51-3.37-8.95-3.13,0,0-3.47,9.13-5.7,18.67-2.77,11.84-3.88,25.57,9.09,24.77,2.84-.17,45-.79,56.27-1.73,6.99-.59,3.66-4.29,5.57-4.77Z"/>
    <line class="cls-7" x1="75" y1="151.28" x2="85.11" y2="150.81"/>
    <path class="cls-2" d="M230.22,168.27c3.15,4.13,7.38,6.92,11.18,4.13,2.9-2.13-6.23-10.96-6.23-10.96"/>
    <path class="cls-1" d="M215.82,183.17s3.61-6.84,11.21-4.13c.1-2.92-.3-5.37,2.65-6.03,3.13-.7,3.63.61,4.46,1.87-.2-.31.53-1.62.68-1.86,1.2-1.97,5.11-1.95,5.82.5,0,0,2.93-3.8,5.14-1.88,2.21,1.93,2.73,6.5.24,10.08-4.19,6.01-23.56,6.78-23.56,6.78"/>
    <path class="cls-8" d="M215.82,183.17s3.61-6.84,11.21-4.13c.1-2.92-.3-5.37,2.65-6.03,3.13-.7,3.63.61,4.46,1.87-.2-.31.53-1.62.68-1.86,1.2-1.97,5.11-1.95,5.82.5,0,0,2.93-3.8,5.14-1.88,2.21,1.93,2.73,6.5.24,10.08-4.19,6.01-23.56,6.78-23.56,6.78l-6.99.52"/>
    <path class="cls-8" d="M234.14,174.88c.8,4.59-1.14,8.1-3.85,9.23"/>
    <path class="cls-8" d="M240.64,173.51c.82,4.72-.19,8.83-2.27,9.19"/>
    <path class="cls-8" d="M243.11,171.42c-.85,6.13,3.78,8.44,3.92,8.41"/>
    <line class="cls-8" x1="87.09" y1="145.73" x2="89.18" y2="140.66"/>
  </g>
</svg>